<?xml version="1.0" encoding="UTF-8"?>
<svg id="Layer_1" data-name="Layer 1" xmlns="http://www.w3.org/2000/svg" viewBox="0 0 64 64">
  <defs>
    <style>
      .cls-1 {
        fill: #fff;
      }

      .cls-2 {
        fill: #10b77f;
      }
    </style>
  </defs>
  <g>
    <path class="cls-2" d="M46.84,43.49c-.78.36-1.56.72-2.34,1.08-.6.28-1.2.55-1.8.83.1.6.16,1.36.07,2.23-.19,1.81-.93,3.14-1.41,3.87.63-.15,2.53-.7,3.98-2.53,1.84-2.33,1.56-4.97,1.49-5.47Z"/>
    <path class="cls-2" d="M17.61,42.65c-.22-1.9-.65-6.12-.82-9.75-.41.27-.81.55-1.19.85-1,.78-1.91,1.67-2.7,2.65,1.03,3.47,2.33,6.64,3.51,9.41.35-.04.68-.05.97-.04.22.02.45.05.7.09-.25-1.12-.35-2.24-.47-3.21Z"/>
    <path class="cls-2" d="M52.51,34.58c-.22-.48-2.39-1.89-2.95-2.15-3.23-1.54-6.49-1.01-9.41.87-.29.19-1.75,1.2-1.7,1.45l1.13,1.61c-1.72-1.61-3.69-2.94-5.82-3.93-2.37-1.1-4.91-1.82-7.51-2.07-1.75-.17-3.58-.06-5.25.5-.87.29-1.72.65-2.54,1.07-.57.29-1.13.61-1.67.97.17,3.63.6,7.85.82,9.75.11.96.22,2.09.47,3.21.85.15,1.81.42,2.63.53,2.92.4,5.87.51,8.81.26.47-1.77.19-3.4.03-5.16-.01-.14-.12-.46.11-.43,1.11,3.48,1.18,7.12.08,10.42-.08.25-.17.49-.26.73-.61,1.57-1.5,3.05-2.68,4.38l-1.59,1.52c5,.06,9.59-2.64,12.22-6.66h0s0,0,0,0c1.36-2.07,2.2-4.5,2.3-7.08,4.79-.75,9.25-3.3,11.8-7.48.25-.42,1.16-1.94.98-2.33ZM47.31,35.68c-.48,0-.86-.39-.86-.87s.39-.86.86-.86.87.39.87.86-.39.87-.87.87Z"/>
  </g>
  <g>
    <path class="cls-1" d="M20.66,50.19c1.25.87,5.28,1.19,9.08,1.29-.08.25-.17.49-.26.73-8.44.64-10.4-.12-11.81-3.47-.39-.92-.81-1.9-1.25-2.94-1.18-2.77-2.48-5.94-3.51-9.41-.35-1.17-.67-2.37-.94-3.61-1.39-6.26-.05-10.14,6.65-9.7,6.64.44,24.1,6.42,24.43,6.54-.28-.07-14.44-3.33-17.89-3.99-3.49-.66-8.42.72-8.42,4.65,0,.8.03,1.68.07,2.6.17,3.63.6,7.85.82,9.75.11.96.22,2.09.47,3.21.37,1.65,1.06,3.27,2.58,4.33Z"/>
    <path class="cls-1" d="M37.43,51.47h.02s-.01,0-.02,0c0,0,0,0,0,0Z"/>
    <polygon class="cls-1" points="14.53 5.88 30.19 24.87 32.46 25.4 14.53 5.88"/>
    <polygon class="cls-1" points="33.01 25.51 34.45 26.12 47.89 21.12 33.01 25.51"/>
  </g>
</svg>