<?xml version="1.0" encoding="UTF-8"?>
<svg id="Layer_1" xmlns="http://www.w3.org/2000/svg" version="1.1" viewBox="0 0 28 28">
  <!-- Generator: Adobe Illustrator 29.4.0, SVG Export Plug-In . SVG Version: 2.1.0 Build 152)  -->
  <defs>
    <style>
      .st0 {
        fill: #fff;
      }
    </style>
  </defs>
  <rect x="0" y="0" width="28" height="28" rx="14" ry="14"/>
  <path class="st0" d="M8.99,15.8l-3.24-1.05c-1.06-.38-.93-1.33-.02-1.83l13.53-5.26c.81-.21,1.42,0,1.54.89-.71,3.56-1.37,7.15-2.2,10.69-.27,1.13-.48,2.32-1.99,1.58l-3.21-2.35-2.14,1.84c-.31.19-.66.07-.86-.21-.62-1.37-.93-2.87-1.41-4.3ZM19.71,8.69l-13.22,5.11,2.9.93c1.56-1.02,3.11-2.07,4.7-3.06.68-.42,2.71-1.78,3.37-1.88.52-.07.83.37.62.85-.17.4-1.67,1.73-2.09,2.12-1.24,1.17-2.54,2.26-3.77,3.44l5.08,3.74,2.4-11.25ZM14.09,13l-3.96,2.57-.02.18.54,1.74.11-.74c.03-.33-.08-.58.16-.87l3.17-2.87ZM11.68,18.46l.76-.63c.01-.06-.51-.48-.57-.51-.12-.05-.07.09-.08.14-.05.34-.03.68-.11,1.01Z"/>
</svg>