<svg width="962" height="244" viewBox="0 0 962 244" fill="none" xmlns="http://www.w3.org/2000/svg">
<g clip-path="url(#clip0_9_134)">
<path d="M164.678 175.069C161.056 176.738 157.429 178.407 153.807 180.077C151.009 181.366 148.21 182.656 145.411 183.946C145.873 186.721 146.161 190.275 145.74 194.349C144.871 202.764 141.432 208.979 139.196 212.34C142.105 211.631 150.977 209.07 157.727 200.551C166.31 189.712 164.98 177.42 164.678 175.074V175.069Z" fill="#10B77F"/>
<path d="M28.6084 171.196C27.5794 162.351 25.5718 142.687 24.7944 125.789C22.8874 127.033 21.0398 128.345 19.2471 129.74C14.61 133.357 10.3752 137.496 6.68013 142.06C11.4819 158.217 17.5368 172.97 23.0291 185.88C24.6755 185.688 26.1892 185.624 27.5337 185.715C28.5626 185.788 29.651 185.935 30.7806 186.127C29.619 180.927 29.1343 175.682 28.6129 171.191L28.6084 171.196Z" fill="#10B77F"/>
<path d="M191.06 133.618C190.054 131.405 179.938 124.838 177.345 123.594C162.323 116.437 147.14 118.87 133.548 127.65C132.218 128.515 125.404 133.239 125.623 134.396L130.887 141.891C122.902 134.396 113.705 128.222 103.773 123.603C92.733 118.467 80.9252 115.152 68.8018 113.963C60.6707 113.162 52.1418 113.679 44.3583 116.304C40.3065 117.676 36.3553 119.341 32.5458 121.289C29.8797 122.647 27.2822 124.143 24.7852 125.789C25.5627 142.687 27.5748 162.351 28.5992 171.196C29.1206 175.682 29.6053 180.932 30.7669 186.132C34.7364 186.808 39.1861 188.075 43.0092 188.606C56.5823 190.472 70.3521 190.988 84.0212 189.827C86.1934 181.577 84.8947 174.008 84.1584 165.818C84.0943 165.159 83.6096 163.691 84.6706 163.815C89.8382 179.994 90.1721 196.943 85.0593 212.313C84.6889 213.461 84.2681 214.595 83.8291 215.72C80.9663 223.019 76.8368 229.897 71.3581 236.112L63.9496 243.204C87.2178 243.488 108.597 230.93 120.853 212.226H120.862C120.862 212.226 120.858 212.226 120.853 212.221C127.187 202.572 131.079 191.281 131.541 179.276C153.839 175.764 174.592 163.924 186.478 144.447C187.653 142.513 191.87 135.402 191.056 133.623L191.06 133.618ZM166.864 138.731C164.646 138.731 162.839 136.925 162.839 134.697C162.839 132.47 164.646 130.673 166.864 130.673C169.082 130.673 170.893 132.475 170.893 134.697C170.893 136.92 169.086 138.731 166.864 138.731Z" fill="#10B77F"/>
<path d="M42.7897 206.281C48.593 210.315 67.3703 211.828 85.0684 212.308C84.698 213.456 84.2773 214.59 83.8382 215.715C44.5732 218.679 35.4178 215.139 28.8599 199.568C27.0535 195.278 25.0779 190.705 23.0246 185.88C17.5322 172.975 11.4774 158.217 6.67556 142.06C5.04295 136.618 3.56582 131.021 2.29449 125.277C-4.15822 96.1277 2.03838 78.0729 33.2501 80.1354C64.1691 82.175 145.429 110.035 146.984 110.574C145.663 110.268 79.7727 95.0667 63.6844 91.9982C47.436 88.9113 24.4697 95.3548 24.4697 113.666C24.4697 117.379 24.5886 121.495 24.7852 125.789C25.5627 142.687 27.5748 162.351 28.5992 171.196C29.1206 175.682 29.6053 180.932 30.7669 186.132C32.4864 193.796 35.7105 201.365 42.7805 206.281H42.7897Z" fill="white"/>
<path d="M120.858 212.217H120.959C120.959 212.217 120.904 212.221 120.867 212.221C120.867 212.221 120.862 212.221 120.858 212.217Z" fill="white"/>
<path d="M14.2487 0L87.1629 88.3943L97.7406 90.8867L14.2487 0Z" fill="white"/>
<path d="M100.274 91.4034L106.983 94.2388L169.539 70.9386L100.274 91.4034Z" fill="white"/>
<path d="M246.478 50.6261H268.148L302.628 94.9261V50.6261H325.618V134.446H305.268L269.458 88.4661V134.446H246.478V50.6261Z" fill="#10B982"/>
<path d="M335.978 115.886V115.656C335.978 102.236 346.158 95.296 361.358 95.296C367.348 95.296 373.218 96.496 376.928 97.816V96.736C376.928 90.036 372.738 86.2061 363.998 86.2061C357.178 86.2061 351.898 87.526 346.158 89.796L341.488 73.746C348.788 70.756 356.568 68.7261 367.708 68.7261C378.848 68.7261 387.228 71.476 392.378 76.626C397.288 81.416 399.328 88.1161 399.328 97.2261V134.456H376.818V127.746C372.378 132.656 366.278 135.886 357.778 135.886C345.448 135.886 335.988 128.826 335.988 115.886H335.978ZM377.168 110.976V107.986C374.898 107.026 371.668 106.306 368.318 106.306C361.728 106.306 357.898 109.546 357.898 114.326V114.556C357.898 118.996 361.248 121.626 365.918 121.626C372.508 121.626 377.168 117.436 377.168 110.966V110.976Z" fill="#10B982"/>
<path d="M410.968 47.0361H433.728V91.3361L451.328 69.6661H477.078L454.568 95.6461L477.678 134.436H452.648L439.598 112.406L433.728 119.226V134.436H410.968V47.0261V47.0361Z" fill="#10B982"/>
<path d="M476.978 102.356V102.116C476.978 83.206 490.508 68.2261 509.668 68.2261C532.068 68.2261 542.358 84.636 542.358 103.676C542.358 105.106 542.358 106.786 542.228 108.346H498.888C500.678 115.406 505.828 119.006 512.898 119.006C518.278 119.006 522.588 116.966 527.258 112.416L539.838 122.836C533.608 130.736 524.628 136.006 511.698 136.006C491.338 136.006 476.968 122.476 476.968 102.356H476.978ZM521.048 96.7261C520.208 89.5461 516.018 84.996 509.788 84.996C503.558 84.996 499.738 89.6661 498.538 96.7261H521.048Z" fill="#10B982"/>
<path d="M549.718 102.356V102.116C549.718 81.0461 562.888 68.2261 578.218 68.2261C588.038 68.2261 593.778 72.6661 598.088 77.5661V47.0361H620.848V134.446H598.088V125.826C593.658 131.206 588.038 135.876 578.338 135.876C563.008 135.876 549.718 123.066 549.718 102.356ZM598.438 102.116V101.886C598.438 93.3861 592.568 87.2761 585.268 87.2761C577.968 87.2761 571.978 93.2661 571.978 101.886V102.116C571.978 110.736 577.968 116.846 585.268 116.846C592.568 116.846 598.438 110.736 598.438 102.116Z" fill="#10B982"/>
<path d="M660.988 59.3761H632.848V50.6261H698.698V59.3761H670.558V134.446H660.988V59.3761Z" fill="#FBFBFB"/>
<path d="M703.538 110.976V72.5461H712.758V108.706C712.758 120.196 718.978 127.376 729.878 127.376C740.778 127.376 748.428 119.596 748.428 107.986V72.5461H757.538V134.446H748.428V123.676C744.248 130.376 737.898 135.766 727.238 135.766C712.258 135.766 703.528 125.706 703.528 110.986L703.538 110.976Z" fill="#FBFBFB"/>
<path d="M778.288 72.5461H787.508V88.7161C792.058 78.4061 801.038 70.9961 812.768 71.4661V81.3961H812.058C798.528 81.3961 787.508 91.0961 787.508 109.776V134.446H778.288V72.5461Z" fill="#FBFBFB"/>
<path d="M830.048 118.036V80.6861H821.428V72.5461H830.048V53.8661H839.258V72.5461H858.908V80.6861H839.258V116.846C839.258 124.386 843.448 127.146 849.678 127.146C852.788 127.146 855.418 126.546 858.658 124.996V132.896C855.418 134.576 851.948 135.536 847.528 135.536C837.588 135.536 830.048 130.626 830.048 118.046V118.036Z" fill="#FBFBFB"/>
<path d="M876.048 47.0361H885.268V134.446H876.048V47.0361Z" fill="#FBFBFB"/>
<path d="M902.888 103.676V103.436C902.888 85.5961 915.468 71.2361 932.588 71.2361C950.908 71.2361 961.448 85.8461 961.448 103.916C961.448 105.116 961.448 105.836 961.318 106.906H912.228C913.548 120.326 922.998 127.866 934.018 127.866C942.518 127.866 948.508 124.386 953.538 119.116L959.288 124.266C953.058 131.206 945.508 135.876 933.778 135.876C916.778 135.876 902.878 122.826 902.878 103.676H902.888ZM952.108 100.076C951.148 88.8261 944.678 79.0061 932.348 79.0061C921.578 79.0061 913.438 87.9861 912.238 100.076H952.118H952.108Z" fill="#FBFBFB"/>
<path d="M633 196.128V155.211H640.303V196.128H633Z" fill="#10B982"/>
<path d="M741.847 158.539C743.829 160.532 745.055 163.28 745.055 166.324C745.055 170.758 742.428 174.624 738.628 176.375C737.632 176.835 736.581 177.131 735.464 177.24H735.113V177.295H715.536V196.117H708.233V155.199H734.007C737.051 155.199 739.789 156.426 741.782 158.419L741.836 158.528L741.847 158.539ZM735.595 169.707C736.942 169.116 737.818 167.769 737.818 166.313C737.818 164.966 737.106 164.025 736.701 163.619C736.23 163.149 735.365 162.568 734.073 162.568H715.536V170.112H734.073C734.588 170.112 735.124 169.992 735.584 169.751V169.696L735.595 169.707Z" fill="#10B982"/>
<path d="M853.771 155.265V162.58H836.997V196.183H829.694V162.58H812.919V155.265H853.771Z" fill="#10B982"/>
<path d="M961.129 155.211L957.385 162.525L940.26 196.128L923.146 162.525L919.401 155.211H927.581L931.325 162.525L940.26 180.055L949.205 162.525L952.95 155.211H961.129Z" fill="#10B982"/>
<path d="M599.762 172.836H246.556C246.337 172.836 246.159 173.131 246.159 173.494V178.179C246.159 178.542 246.337 178.836 246.556 178.836H599.762C599.982 178.836 600.159 178.542 600.159 178.179V173.494C600.159 173.131 599.982 172.836 599.762 172.836Z" fill="#10B982"/>
</g>
<defs>
<clipPath id="clip0_9_134">
<rect width="961.448" height="243.209" fill="white"/>
</clipPath>
</defs>
</svg>
