<svg xmlns="http://www.w3.org/2000/svg" width="60" height="40" viewBox="0 0 60 40">
  <rect width="60" height="40" rx="4" fill="#F7F7F7"/>
  <path d="M40,20c0,5.5-4.5,10-10,10s-10-4.5-10-10s4.5-10,10-10S40,14.5,40,20z" fill="#F7931A"/>
  <path d="M33.2,17.6c0.2-1.4-0.9-2.1-2.3-2.6L31.5,13l-1.3,0.3l-0.6,2c-0.3,0.1-0.7,0.2-1,0.2l-0.6-2l-1.3,0.3l0.6,2.1c-0.3,0.1-0.5,0.1-0.8,0.2l0,0l-1.8,0.5l0.3,1.4c0,0,0.9-0.3,0.9-0.2c0.5-0.1,0.8,0.2,0.9,0.4l0.7,2.6c0,0,0.1,0,0.1,0c0,0-0.1,0-0.1,0l1,3.7c0,0.2,0,0.5-0.4,0.6c0,0-0.9,0.2-0.9,0.2l0.1,1.6l1.7-0.4c0.3-0.1,0.6-0.1,0.9-0.2l0.6,2.1l1.3-0.3l-0.6-2.1c0.3-0.1,0.7-0.2,1-0.3l0.6,2.1l1.3-0.3l-0.6-2.1c2-0.4,3.5-1.4,3.2-3.6c-0.2-1.7-1.1-2.3-2.3-2.3c0.6-0.6,0.8-1.4,0.4-2.5L33.2,17.6z M32.7,23.1c0.3,1.4-2.1,1.9-2.9,2.1l-0.7-2.5C29.8,22.5,32.4,21.7,32.7,23.1z M31.4,18.9c0.3,1.3-1.7,1.7-2.4,1.9l-0.6-2.3C29.2,18.3,31.1,17.6,31.4,18.9z" fill="white"/>
</svg> 