<svg xmlns="http://www.w3.org/2000/svg" width="60" height="40" viewBox="0 0 60 40">
  <rect width="60" height="40" rx="4" fill="#F7F7F7"/>
  <circle cx="24" cy="20" r="10" fill="#EB001B"/>
  <circle cx="36" cy="20" r="10" fill="#F79E1B"/>
  <path d="M30,12c3.9,0,7.3,2.2,9,5.5c-1.7,3.2-5.1,5.5-9,5.5s-7.3-2.2-9-5.5C22.7,14.2,26.1,12,30,12z" fill="#FF5F00"/>
  <path d="M30,12c3.9,0,7.3,2.2,9,5.5c-1.7,3.2-5.1,5.5-9,5.5s-7.3-2.2-9-5.5C22.7,14.2,26.1,12,30,12z" fill="#FF5F00" opacity="0"/>
  <path d="M22,27v-1h0.5v0.2h-0.3V27H22z M23.1,27v-1h0.4l0.2,0.7c0,0.1,0,0.1,0,0.2h0c0-0.1,0-0.1,0.1-0.2l0.2-0.7h0.4v1h-0.2v-0.8h0l-0.3,0.8h-0.2l-0.3-0.8h0V27H23.1z M25,27v-0.2h0.5v-0.6H25v-0.2h0.7v1H25z M26.1,27v-1h0.7v0.2h-0.5v0.2h0.4v0.2h-0.4v0.2h0.5V27H26.1z M27,27v-1h0.2l0.5,0.8h0v-0.8h0.2v1h-0.2l-0.5-0.8h0V27H27z M28.5,27v-0.8h-0.3v-0.2h0.8v0.2H28.8v0.8H28.5z M29.4,27v-1h0.2v1H29.4z M30.1,27v-1h0.2l0.5,0.8h0v-0.8H31v1h-0.2l-0.5-0.8h0V27H30.1z M31.6,27v-1h0.7v0.2h-0.5v0.2h0.4v0.2h-0.4v0.2h0.5V27H31.6z M32.8,26.2v-0.2h0.7v0.2h-0.3v0.8h-0.2v-0.8H32.8z M34.6,27l-0.3-1h0.2l0.2,0.8h0l0.2-0.8h0.2l0.2,0.8h0l0.2-0.8h0.2l-0.3,1h-0.2l-0.2-0.7h0l-0.2,0.7H34.6z M36.1,27v-1h0.7v0.2h-0.5v0.2h0.4v0.2h-0.4v0.2h0.5V27H36.1z M37.2,27v-1h0.2l0.5,0.8h0v-0.8h0.2v1h-0.2l-0.5-0.8h0V27H37.2z"/>
</svg> 