<svg xmlns="http://www.w3.org/2000/svg" width="60" height="40" viewBox="0 0 60 40">
  <rect width="60" height="40" rx="4" fill="#F7F7F7"/>
  <path d="M25.5,13h6c3.3,0,4.5,1.6,4.3,4c-0.3,3.2-2.6,5-6,5h-1.5c-0.4,0-0.7,0.3-0.8,0.7l-0.6,4.3h-3.3l2-12.8C25.7,13.4,26.1,13,25.5,13z" fill="#003087"/>
  <path d="M38.3,17c0.2-1.4,0-2.3-0.6-3.2c-0.7-1-1.9-1.4-3.4-1.4h-7.3c-0.4,0-0.8,0.3-0.9,0.7l-2.6,16.4c-0.1,0.3,0.2,0.6,0.5,0.6h3.9l-0.3,1.7c0,0.3,0.2,0.5,0.4,0.5h3.4c0.4,0,0.7-0.3,0.8-0.6l0-0.1l0.6-4.1l0-0.1c0.1-0.4,0.4-0.6,0.8-0.6h0.5c3,0,5.4-1.2,6.1-4.8c0.3-1.5,0.1-2.7-0.6-3.6C39.3,17.7,38.8,17.3,38.3,17z" fill="#0070E0"/>
  <path d="M37.9,17c-0.1,0-0.1,0-0.2,0c-0.1,0-0.2,0-0.4,0c-0.4,0-0.9,0-1.4,0.1c-1.2,0.2-2.2,0.7-2.9,1.5c-0.9,1.1-1.2,2.3-1,3.9c0.1,0.5,0.2,0.9,0.4,1.2c0.2,0.3,0.4,0.6,0.7,0.8c0.3,0.2,0.6,0.4,1,0.5c0.4,0.1,0.8,0.2,1.3,0.2h0.3c0.2,0,0.5,0,0.7-0.1c0.1,0,0.3-0.1,0.4-0.1c0.1,0,0.2-0.1,0.3-0.1c0.1,0,0.2-0.1,0.2-0.1c0.2-0.1,0.3-0.1,0.5-0.2c0.2-0.1,0.3-0.4,0.4-0.6c0-0.1,0.1-0.3,0.1-0.5c0.1-0.2,0.1-0.4,0.2-0.7c0.2-1.3,0-2.2-0.6-3c-0.1-0.2-0.2-0.3-0.4-0.5c-0.1-0.1-0.2-0.2-0.4-0.3C38.4,17.3,38.2,17.1,37.9,17z" fill="#003087"/>
</svg> 