<svg xmlns="http://www.w3.org/2000/svg" width="60" height="40" viewBox="0 0 60 40">
  <rect width="60" height="40" rx="4" fill="#F7F7F7"/>
  <path d="M25.6,16.8l-4.8,11.2h-3.2l-2.4-9.6c-0.2-0.8-0.4-1.2-1-1.4c-0.8-0.4-2-0.6-3.2-0.8v-0.4h5.6c0.8,0,1.4,0.6,1.4,1.2l1.2,6.8l3.4-8h3L25.6,16.8z" fill="#1A1F71"/>
  <path d="M27.6,28h-3l2.6-11.2h3L27.6,28z" fill="#1A1F71"/>
  <path d="M36.4,19.2c0.2-0.2,0.6-0.4,1.2-0.4c1.2,0,2,0.4,2.6,0.8l0.6-2.4c-0.8-0.4-1.6-0.6-2.8-0.6c-3,0-5,1.6-5,3.8c0,1.6,1.4,2.6,2.6,3.2c1.2,0.6,1.6,0.8,1.6,1.4c0,0.8-0.8,1-1.6,1c-1.2,0-2.2-0.4-3-0.8l-0.6,2.4c1,0.4,2.2,0.8,3.4,0.8c3.4,0,5.2-1.6,5.2-3.8c0-1.6-0.8-2.6-2.6-3.4c-1-0.4-1.6-0.8-1.6-1.2C36,19.6,36.2,19.4,36.4,19.2z" fill="#1A1F71"/>
  <path d="M47,16.8c-0.6,0-1.2,0.4-1.4,1l-4.4,10.2h3l0.6-1.8h4l0.4,1.8h2.8l-2.6-11.2H47zM45.6,23.8l1.6-4.4l0.8,4.4H45.6z" fill="#1A1F71"/>
</svg> 